<?xml version="1.0" encoding="utf-8"?>
<!-- Generator: Adobe Illustrator 23.0.3, SVG Export Plug-In . SVG Version: 6.00 Build 0)  -->
<svg version="1.1" id="Layer_1" xmlns="http://www.w3.org/2000/svg" xmlns:xlink="http://www.w3.org/1999/xlink" x="0px" y="0px"
	 viewBox="0 0 512 512" style="enable-background:new 0 0 512 512;" xml:space="preserve">
<style type="text/css">
	.st0{fill:#C80A0A;}
	.st1{fill:none;stroke:#FFFFFF;stroke-width:27;}
</style>
<path class="st0" d="M76.8,0h358.4C477.6,0,512,34.4,512,76.8v358.4c0,42.4-34.4,76.8-76.8,76.8H76.8C34.4,512,0,477.6,0,435.2V76.8
	C0,34.4,34.4,0,76.8,0z"/>
<path class="st1" d="M257,109c-2-62-50-47-48,11c3,70,29,90,68,139c49,62,86,97,116,105c45,12,70-26,26-45c-43-19-122-13-167-6
	c-74,12-127,33-168,79c-36,40-4,70,32,35c33-31,77-116,95-156c24-53,51-100,46-168V109z"/>
</svg>
