<?xml version="1.0" encoding="utf-8"?>
<!-- Generator: Adobe Illustrator 23.0.3, SVG Export Plug-In . SVG Version: 6.00 Build 0)  -->
<svg version="1.1" id="Layer_1" xmlns="http://www.w3.org/2000/svg" xmlns:xlink="http://www.w3.org/1999/xlink" x="0px" y="0px"
	 viewBox="0 0 2500 1844" style="enable-background:new 0 0 2500 1844;" xml:space="preserve">
<style type="text/css">
	.st0{clip-path:url(#SVGID_2_);fill:#DA1F26;}
</style>
<g>
	<defs>
		<rect id="SVGID_1_" x="195" y="143.9" width="2110" height="1556.2"/>
	</defs>
	<clipPath id="SVGID_2_">
		<use xlink:href="#SVGID_1_"  style="overflow:visible;"/>
	</clipPath>
	<path class="st0" d="M2305,887.3v69.5c-0.7,3.8-1.5,7.5-1.9,11.2c-3.6,30.2-5.9,60.6-10.9,90.6c-16.2,97.5-51.3,188.1-103.4,271.9
		c-79.1,127.2-186.1,224.2-320.5,290.4c-77.6,38.4-161.2,63.1-247.2,73c-19.1,2.2-38.2,4.2-57.3,6.3H822.5c-3.7-0.7-7.5-1.8-11.2-2
		c-74.7-4.7-146.7-21.7-215.2-51.7c-149.2-65.3-260.5-171.1-333.3-316.8c-32.2-64.3-53-133.6-61.6-204.9c-2.1-17.3-4.2-34.7-6.2-52
		v-67.4c0.7-3.7,1.8-7.5,2-11.2c3.9-64.8,17.2-127.6,40.6-188.1c63-162.6,172.7-283.2,328.6-361.3c80.9-40.5,167.2-61.8,257.4-66.5
		c44.2-2.3,88.3,0.2,132.2,6.1c4,0.5,9.7-1.2,12.5-4.1c63.1-64.5,135-116.9,216.1-156.6c78.6-38.5,161.3-63.3,248.4-73.3
		c20.5-2.3,41-4.3,61.6-6.4h63.2c4.1,0.6,8.3,1.4,12.4,1.9c31.3,3.6,62.8,5.9,93.8,11.1c96.8,16.2,186.8,51,270.2,102.6
		c127.8,79.1,225.2,186.2,291.8,321c38.5,77.6,63.2,161.3,73,247.4C2301,847.7,2302.9,867.5,2305,887.3 M1125.2,437.8
		c1.3,1.7,1.6,2.4,2.1,2.7c43.4,21.4,84.9,46.5,124,75c2.5,1.8,8.6,1,11.6-0.8c107.5-68.1,224-91.6,349.1-69.4
		c122.6,21.7,222.4,83,298.6,180.9c86.3,110.7,119.2,236,95.4,375.3c-16,93.4-53.4,177.2-117,247.3
		c-116,127.9-261.3,180.9-432.3,158.4c-105.3-13.8-196.2-59.2-271.4-135.2c-96.5-97.5-193.7-194.4-290.5-291.6
		c-12.9-13-27.3-23.4-45.8-25.6c-32.5-4-61.9,12.2-75.9,41.4c-12.5,26-10.9,55.4,16.2,82.1c107.9,106,214.9,212.9,322.7,318.9
		c18.5,18.2,38.2,35.1,59.2,50.4c78.8,57.2,167.5,88.8,263.7,101.5c75.5,10,150.4,7.8,224.7-8.9c141.7-31.8,259.2-104.2,351.6-215.8
		c76.4-92.2,122.5-198.3,138.6-317.3c9.3-67.9,7.4-136.8-5.8-204c-21.4-109.9-68-208.3-142.5-292
		c-142.2-159.6-321.1-230.9-533.9-215c-81.9,6.1-159.3,30.2-232.2,68.3C1196.2,384.7,1159.2,409.4,1125.2,437.8 M1073.1,1552.3
		c-2.9-2.7-5.8-5.4-8.8-8.2c-44.1-41.7-88.5-83.1-132.1-125.3c-8.4-8.2-16.2-12.1-28.2-11.9c-44.2,1.1-88.4,1.3-131.9-8.6
		c-216.4-48.9-342-284.2-262.3-491.2c62.9-163.2,237-262.6,408.7-232c77,13.7,144.5,46.3,200,103.5
		c67.6,69.8,137.3,137.6,205.6,206.7c15.6,15.7,33.4,22.9,55,19.8c27.9-4,50-17.2,60.1-44.6c9.9-26.9,5.1-52.3-15.3-73
		c-71.7-72.7-141.8-147.2-216.4-216.8c-144.8-135-315.5-175.2-504.3-117.8c-253.9,77.2-402.6,339.4-344.5,598.1
		c52.9,235.8,259.1,401.2,500.3,401.4c67.4,0.1,134.7,0,202.1,0C1064.7,1552.8,1068,1552.6,1073.1,1552.3"/>
</g>
</svg>
