<?xml version="1.0" ?><!DOCTYPE svg  PUBLIC '-//W3C//DTD SVG 1.1//EN'  'http://www.w3.org/Graphics/SVG/1.1/DTD/svg11.dtd'><svg enable-background="new 0 0 512 512" height="512px" id="Bridge_1_" version="1.1" viewBox="0 0 512 512" width="512px" xml:space="preserve" xmlns="http://www.w3.org/2000/svg" xmlns:xlink="http://www.w3.org/1999/xlink"><g id="Frame_13_"><g><rect fill="#E7BA05" height="486.004" width="499.004" x="6.998" y="11.998"/></g></g><g id="Background_13_"><g><rect fill="#403721" height="407.969" width="421.987" x="45.008" y="51.016"/></g></g><g id="Shadow2_13_" opacity="0.302"><g><polygon points="371.479,206.695 347,229 325,209 305,212 242,162 147,157 139,356 279,459 467,459 467,272   "/></g></g><g id="Shadow_14_" opacity="0.302"><g><rect height="13.998" width="421.987" x="45.008" y="51.001"/></g></g><g id="Br"><g><path d="M139.613,153.748c10.723-2.444,30.244-4.277,49.215-4.277c25.021,0,40.417,3.361,53.065,13.137    c11.547,7.637,19.247,21.079,19.247,38.492c0,18.941-10.724,36.354-30.794,44.603v0.611c19.521,5.499,37.393,22.606,37.393,51.019    c0,18.329-7.149,32.688-17.872,42.464c-13.197,12.83-34.918,19.246-68.737,19.246c-18.697,0-32.994-1.527-41.517-2.75V153.748z     M173.157,235.009h17.322c23.371,0,36.568-12.22,36.568-29.633c0-19.246-13.197-28.105-34.643-28.105    c-9.898,0-15.672,0.611-19.247,1.527V235.009z M173.157,329.713c4.399,0.611,10.173,0.917,17.872,0.917    c21.721,0,40.967-9.165,40.967-34.521c0-23.828-18.696-33.604-42.067-33.604h-16.772V329.713z" fill="#E7BA05"/><path d="M296.604,256.089c0-20.163-0.274-34.521-1.1-47.963h29.419l1.101,28.411h1.1    c6.599-21.079,22.271-31.771,36.568-31.771c3.299,0,5.224,0.306,7.973,0.917v35.438c-2.749-0.611-5.773-1.222-9.897-1.222    c-16.223,0-27.22,11.609-30.244,28.411c-0.551,3.36-1.101,7.332-1.101,11.608v76.985h-33.818V256.089z" fill="#E7BA05"/></g></g></svg>