<?xml version="1.0" encoding="utf-8"?>
<!-- Generator: Adobe Illustrator 23.0.3, SVG Export Plug-In . SVG Version: 6.00 Build 0)  -->
<svg version="1.1" id="Layer_1" xmlns="http://www.w3.org/2000/svg" xmlns:xlink="http://www.w3.org/1999/xlink" x="0px" y="0px"
	 viewBox="0 0 512 512" style="enable-background:new 0 0 512 512;" xml:space="preserve">
<style type="text/css">
	.st0{fill:#573D81;}
	.st1{clip-path:url(#SVGID_2_);}
	.st2{fill:#FFFFFF;}
</style>
<path class="st0" d="M439.9,511.9H72c-39.6,0-72-32.4-72-72V72C0,32.4,32.4,0,72,0h367.9c39.6,0,72,32.4,72,72v367.9
	C511.9,479.5,479.5,511.9,439.9,511.9z"/>
<g>
	<defs>
		<rect id="SVGID_1_" width="512" height="512"/>
	</defs>
	<clipPath id="SVGID_2_">
		<use xlink:href="#SVGID_1_"  style="overflow:visible;"/>
	</clipPath>
	<circle class="st1" cx="-625" cy="256" r="256"/>
</g>
<g>
	<defs>
		<rect id="SVGID_3_" width="512" height="512"/>
	</defs>
	<clipPath id="SVGID_4_">
		<use xlink:href="#SVGID_3_"  style="overflow:visible;"/>
	</clipPath>
</g>
<path class="st2" d="M204.4,276v83H280c13.5,0,24-1.8,31.5-5.5c13.6-6.8,20.5-19.7,20.5-38.9c0-16.2-6.6-27.3-19.8-33.4
	c-7.4-3.4-17.7-5.1-31.1-5.3H204.4z M204.4,155.8v68.6h75.7c13.5,0,24.5-2.6,32.9-7.7c8.4-5.1,12.6-14.3,12.6-27.3
	c0-14.5-5.6-24.1-16.7-28.7c-9.6-3.2-21.9-4.9-36.8-4.9H204.4z M373.4,134.9c9.5,13.2,14.3,29.1,14.3,47.5c0,19-4.8,34.3-14.4,45.8
	c-5.4,6.5-13.3,12.4-23.7,17.7c15.9,5.8,27.9,14.9,36,27.4c8.1,12.5,12.1,27.7,12.1,45.6c0,18.4-4.6,35-13.9,49.6
	c-5.9,9.7-13.2,17.9-22,24.5c-9.9,7.6-21.7,12.8-35.2,15.6c-13.5,2.8-28.2,4.2-44,4.2H142.3V101.7h150.4
	C330.7,102.3,357.6,113.4,373.4,134.9z"/>
</svg>
