<?xml version="1.0" encoding="utf-8"?>
<!-- Generator: Adobe Illustrator 23.0.3, SVG Export Plug-In . SVG Version: 6.00 Build 0)  -->
<svg version="1.1" xmlns="http://www.w3.org/2000/svg" xmlns:xlink="http://www.w3.org/1999/xlink" x="0px" y="0px"
	 viewBox="0 0 336 390" style="enable-background:new 0 0 336 390;" xml:space="preserve">
<style type="text/css">
	.st0{enable-background:new    ;}
	.st1{fill-rule:evenodd;clip-rule:evenodd;fill:#E44D26;}
	.st2{fill-rule:evenodd;clip-rule:evenodd;fill:#EBEBEB;}
	.st3{fill-rule:evenodd;clip-rule:evenodd;fill:#F16529;}
	.st4{fill-rule:evenodd;clip-rule:evenodd;fill:#FFFFFF;}
	.st5{display:none;}
	.st6{display:inline;}
	.st7{fill:#FDD83C;}
	.st8{fill:#D4B830;}
	.st9{opacity:0.986;fill:#EBEBEB;fill-opacity:0;enable-background:new    ;}
	.st10{opacity:0.986;fill:#EBEBEB;fill-opacity:0.9216;enable-background:new    ;}
	.st11{fill-rule:evenodd;clip-rule:evenodd;fill:#1758A7;}
	.st12{fill-rule:evenodd;clip-rule:evenodd;fill:#379AD6;}
	.st13{fill-rule:evenodd;clip-rule:evenodd;fill:#E8E8E7;}
	.st14{fill-rule:evenodd;clip-rule:evenodd;fill:#FBFBFA;}
	.st15{fill-rule:evenodd;clip-rule:evenodd;fill:#E5E4E2;}
	.st16{fill-rule:evenodd;clip-rule:evenodd;fill:#EEEEEE;}
	.st17{fill-rule:evenodd;clip-rule:evenodd;fill:#E7E7E6;}
	.st18{fill-rule:evenodd;clip-rule:evenodd;fill:#F8F8F7;}
</style>
<g id="Layer_1">
	<g>
		<g id="形状_1_9_" class="st0">
			<g id="形状_1">
				<g>
					<polygon class="st1" points="5.1,9.9 34.7,342.5 167.8,379.5 301.2,342.5 330.9,9.9 					"/>
				</g>
			</g>
		</g>
		<g id="形状_1_8_" class="st0">
			<g id="形状_1_1_">
				<g>
					<path class="st2" d="M168,77.9H65.7l1,10.9l10,112.4H168v-40.8h-54l-3.7-41.8H168V77.9z M122.4,254.2l-2.9-32.5h-41l5.7,64.1
						l83.6,23.2l0.2-0.1v-42.4h-0.2L122.4,254.2z"/>
				</g>
			</g>
		</g>
		<g id="形状_1_7_" class="st0">
			<g id="形状_1_2_">
				<g>
					<polygon class="st3" points="168,37.1 168,351.2 275.8,321.3 301.2,37.1 					"/>
				</g>
			</g>
		</g>
		<g id="形状_1_6_" class="st0">
			<g id="形状_1_3_">
				<g>
					<path class="st4" d="M167.9,201.3h50.2l-4.7,52.9l-45.5,12.3v42.4l83.6-23.2l0.6-6.9l9.6-107.4l1-11h-94.8L167.9,201.3
						L167.9,201.3z M167.9,77.9v40.8h98.5l0.8-9.2l1.9-20.7l1-10.9H167.9L167.9,77.9z"/>
				</g>
			</g>
		</g>
	</g>
</g>
<g id="Layer_2" class="st5">
	<g id="g5193" transform="translate(4.988 -113.385)" class="st6">
		<path id="path5117" class="st7" d="M162.8,152.7h133.2l-25.2,285.2l-107.9,29.3L162.8,152.7L162.8,152.7z M263.8,389.6l8.8-106.4
			l-64.7,7.2v-56.8l69-0.3l2.8-38.8l-104.1,0.5l1.4,141.3l62.9-10.8L239,357l-63.4,16.9l0.6,38.6L263.8,389.6L263.8,389.6z"/>
		<path id="path5113" class="st8" d="M30.1,455.6L-0.1,123.3l325.2,0.1l-29.9,331.9l-132.9,37.5L30.1,455.6z M270.7,437.5
			l25.2-284.6H162.8l1,313.9L270.7,437.5z M150.3,194.6H118l-0.4,170.3l-62.8-17.1l0.1,38.9l95.4,25.7L150.3,194.6L150.3,194.6z"/>
		<path id="path5159" class="st9" d="M139.7,409.3c-4.2-1.3-24.9-6.8-45.9-12.6l-38.2-10.3v-19.2c0-18.8,0-19.2,1.9-18.5
			c1,0.4,15,4.2,31,8.6l29,8l0.3-85l0.3-85h31.7v108.1c0,85.9-0.3,108.1-1.1,108.1C147.9,411.5,143.9,410.4,139.7,409.3L139.7,409.3
			z"/>
		<path id="path5157" class="st10" d="M54.9,386.7l-0.1-38.9c0,0,40.1,11.3,62.8,17.1l0.4-170.2h32.3v217.8L54.9,386.7L54.9,386.7z"
			/>
	</g>
</g>
<g id="Layer_3" class="st5">
	<g class="st6">
		<g id="形状_1_24_" class="st0">
			<g id="形状_1_25_">
				<g>
					<polygon class="st11" points="3.7,9.9 34.6,343.6 168,379.5 301.5,343.6 332.3,9.9 					"/>
				</g>
			</g>
		</g>
		<g id="形状_1_22_" class="st0">
			<g id="形状_1_23_">
				<g>
					<polygon class="st12" points="168,36.9 168,350.9 168.3,350.9 276.4,321.9 301.3,36.9 					"/>
				</g>
			</g>
		</g>
		<g id="形状_1_20_" class="st0">
			<g id="形状_1_21_">
				<g>
					<polygon class="st13" points="167.6,265.4 167.6,265.5 123,254.1 120.3,221.4 78.9,221.4 84.3,284.5 168,309.6 168,265.3 					
						"/>
				</g>
			</g>
		</g>
		<g id="形状_1_18_" class="st0">
			<g id="形状_1_19_">
				<g>
					<polygon class="st14" points="168,159.7 168,199.8 168.1,199.8 217.7,199.9 214.5,252.3 168.1,265.4 168,265.4 168,309.6 
						168.1,309.6 168.2,309.6 252.2,285 263.1,159.7 					"/>
				</g>
			</g>
		</g>
		<g id="形状_1_16_" class="st0">
			<g id="形状_1_17_">
				<g>
					<polygon class="st15" points="73,159.7 76.2,199.8 76.2,199.8 168,199.8 168,159.7 					"/>
				</g>
			</g>
		</g>
		<g id="形状_1_14_" class="st0">
			<g id="形状_1_15_">
				<g>
					<polygon class="st16" points="73,159.7 167.8,159.7 168,159.6 168,119.5 					"/>
				</g>
			</g>
		</g>
		<g id="形状_1_13_" class="st0">
			<g id="形状_1_10_">
				<g>
					<polygon class="st4" points="173.6,117.6 168,119.9 168,159.7 266.1,117.6 					"/>
				</g>
			</g>
		</g>
		<g id="形状_1_12_" class="st0">
			<g id="形状_1_5_">
				<g>
					<polygon class="st17" points="64.2,77.3 69.2,117.6 168,117.6 168,77.3 					"/>
				</g>
			</g>
		</g>
		<g id="形状_1_11_" class="st0">
			<g id="形状_1_4_">
				<g>
					<path class="st18" d="M168,117.6l101.9-40.2H168V117.6z M168,117.6h97.9l4.1-40.2L168,117.6z"/>
				</g>
			</g>
		</g>
	</g>
</g>
</svg>
