<?xml version="1.0" encoding="utf-8"?>
<!-- Generator: Adobe Illustrator 23.0.3, SVG Export Plug-In . SVG Version: 6.00 Build 0)  -->
<svg version="1.1" id="Lager_1" xmlns="http://www.w3.org/2000/svg" xmlns:xlink="http://www.w3.org/1999/xlink" x="0px" y="0px"
	 viewBox="0 0 60.9 68.9" style="enable-background:new 0 0 60.9 68.9;" xml:space="preserve">
<style type="text/css">
	.st0{fill:#81CF08;}
</style>
<g>
	<path class="st0" d="M30.5,66.3c-0.9,0-1.7-0.2-2.5-0.7L20.2,61c-1.2-0.7-0.6-0.9-0.2-1c1.6-0.6,1.9-0.7,3.5-1.6
		c0.2-0.1,0.4-0.1,0.6,0.1l6,3.6c0.2,0.1,0.5,0.1,0.7,0l23.4-13.5c0.2-0.1,0.4-0.4,0.4-0.6V21c0-0.3-0.1-0.5-0.4-0.6L30.9,6.8
		c-0.2-0.1-0.5-0.1-0.7,0L6.8,20.2c-0.2,0.1-0.4,0.4-0.4,0.6v27c0,0.2,0.1,0.5,0.4,0.6l6.4,3.7c3.5,1.7,5.6-0.3,5.6-2.4V23.2
		c0-0.4,0.3-0.7,0.7-0.7h3c0.4,0,0.7,0.3,0.7,0.7v26.6c0,4.7-2.5,7.3-6.9,7.3c-1.4,0-2.4,0-5.4-1.5l-6.1-3.5
		c-1.5-0.9-2.5-2.5-2.5-4.3v-27c0-1.7,0.9-3.4,2.5-4.3L28.2,3c1.5-0.8,3.5-0.8,4.9,0l23.4,13.5C58,17.4,59,19,59,20.8v27
		c0,1.7-0.9,3.4-2.5,4.3L33,65.7C32.2,66.1,31.4,66.3,30.5,66.3z"/>
	<path class="st0" d="M37.8,47.7c-10.2,0-12.4-4.7-12.4-8.6c0-0.4,0.3-0.7,0.7-0.7h3c0.3,0,0.6,0.2,0.7,0.6c0.4,3.1,1.8,4.6,8,4.6
		c4.9,0,7-1.1,7-3.7c0-1.5-0.6-2.6-8.3-3.4c-6.4-0.6-10.4-2-10.4-7.2c0-4.7,4-7.5,10.7-7.5c7.5,0,11.2,2.6,11.7,8.2
		c0,0.2-0.1,0.4-0.2,0.5s-0.3,0.2-0.5,0.2h-3c-0.3,0-0.6-0.2-0.7-0.5c-0.7-3.2-2.5-4.3-7.3-4.3c-5.4,0-6,1.9-6,3.3
		c0,1.7,0.7,2.2,8,3.2c7.2,0.9,10.6,2.3,10.6,7.3C49.4,44.8,45.2,47.7,37.8,47.7z"/>
</g>
</svg>
