<?xml version="1.0" ?><!DOCTYPE svg  PUBLIC '-//W3C//DTD SVG 1.1//EN'  'http://www.w3.org/Graphics/SVG/1.1/DTD/svg11.dtd'><svg enable-background="new 0 0 64 64" height="64px" id="Layer_1" version="1.1" viewBox="0 0 64 64" width="64px" xml:space="preserve" xmlns="http://www.w3.org/2000/svg" xmlns:xlink="http://www.w3.org/1999/xlink"><path d="M23.698,42.3c-0.182,0.116-0.357,0.253-0.518,0.411c-1.207,1.186-1.207,3.105,0,4.287c1.205,1.189,3.162,1.189,4.453,0.016  l19.648-19.305c2.412-2.369,6.322-2.369,8.734,0c2.414,2.369,2.414,6.213,0,8.582L37.38,54.682c2.414,2.365,6.324,2.365,8.734,0  l14.27-14.102c4.822-4.738,4.822-12.422,0-17.158c-4.823-4.736-12.643-4.736-17.469,0L23.698,42.3z M53.747,29.842  c-1.207-1.184-3.16-1.184-4.369,0c-0.16,0.162-0.301,0.33-0.416,0.512L29.819,49.157c-2.414,2.37-6.322,2.37-8.734,0l-0.088-0.015  c-1.203-1.183-3.158-1.183-4.365,0c-1.207,1.188-1.207,3.107,0,4.291c0.152,0.147,0.318,0.282,0.492,0.394  c4.848,4.354,12.369,4.227,17.062-0.379l19.562-19.314C54.952,32.947,54.952,31.025,53.747,29.842z M21.085,40.58l19.562-19.316  c1.205-1.186,1.205-3.105,0-4.287c-1.205-1.188-3.16-1.188-4.367,0c-0.16,0.156-0.299,0.326-0.418,0.51L16.718,36.291  c-2.412,2.369-6.322,2.369-8.732,0c-2.412-2.369-2.412-6.213,0-8.582L26.618,9.32c-2.412-2.367-6.322-2.367-8.734,0L3.618,23.422  c-4.824,4.736-4.824,12.42,0,17.158C8.44,45.314,16.263,45.314,21.085,40.58z M10.081,29.842c-1.207,1.184-1.207,3.105,0,4.292  c1.205,1.185,3.162,1.185,4.453,0.011l19.649-19.301c2.287-2.248,5.928-2.365,8.354-0.343l0.289,0.329  c1.207,1.182,3.164,1.182,4.368,0c1.188-1.168,1.242-3.09,0.087-4.275c-4.822-4.74-12.642-4.74-17.463,0l-19.22,18.879  C10.417,29.549,10.243,29.684,10.081,29.842z"/></svg>