<?xml version="1.0" encoding="utf-8"?>
<!-- Generator: Adobe Illustrator 23.0.3, SVG Export Plug-In . SVG Version: 6.00 Build 0)  -->
<svg version="1.1" id="Layer_1" xmlns="http://www.w3.org/2000/svg" xmlns:xlink="http://www.w3.org/1999/xlink" x="0px" y="0px"
	 viewBox="0 0 404 122" style="enable-background:new 0 0 404 122;" xml:space="preserve">
<style type="text/css">
	.st0{fill:#3558A8;}
</style>
<g>
	<path class="st0" d="M265.8,45.4l0.3,1.3c0.1,0.4-0.1,0.7-0.5,0.7"/>
	<polyline class="st0" points="163,51.4 161.6,56.6 163,51.4 163,51.4 	"/>
	<path class="st0" d="M334.7,36.8l-1.6-6.6c-1.2-4.8-4.7-7.1-12.6-7.1h-33.1c-0.8,0-1.5,0.3-1.7,1.1l-12.6,59.5
		c-0.2,0.8-0.2,1.3-0.1,1.7c0.1,0.4,1.6,0.3,2.3,0.3h11.5c0.8,0,2.2,0.1,2.6-0.1s0.6-1.3,0.8-2.1l4.1-20.9l4.9-23.2
		c0.2-0.7,0.9-1.4,1.7-1.4h32.8C334.4,38.1,334.9,37.5,334.7,36.8"/>
	<path class="st0" d="M381.3,12.7c-0.8,0-14.5,0-14.5,0c-0.8,0-1.7,0.8-2.2,1.4l-25.5,37.5c-0.4,0.6-0.9,0.6-1.1-0.1l-1.9-8.2
		c-0.2-0.7-0.9-1.4-1.7-1.4H318c-0.8,0-1.2,0.6-1,1.4l7.4,25.8c0.2,0.7,0.2,1.9,0,2.7L321,84.9c-0.2,0.7,0.3,1,1.1,1h16.2
		c0.8,0,1.5-0.2,1.7-1l3.4-13.2c0.2-0.7,0.7-1.7,1.2-2.4l41.6-55.2c0.5-0.6,0.4-1.3-0.4-1.3L381.3,12.7"/>
	<path class="st0" d="M210.6,23.2h-14.8c-0.8,0-1.5,0.3-1.7,1l-4.9,22.9L184.3,69c-0.2,0.7-0.9,0.7-1.7,0.7h-9.7
		c-9.6,0-8.5-6.1-6.5-15.2c0-0.1,6.2-30.3,6.2-30.3c0.1-0.7-0.4-1-1.1-1h-14.1c-0.8,0-1.5,0.3-1.7,1L150,54.5
		c-2.8,16.4-2.9,30.8,16.1,31.3c0.3,0,30,0,30,0c0.8,0,1.5-0.3,1.7-1l6.4-30.4l6.4-30.5C210.6,23.9,210.8,23.2,210.6,23.2"/>
	<path class="st0" d="M63.1,23.1H47.2c-0.8,0-1.5,0.2-1.7,0.9l-2.9,12.4c-0.2,0.7,0.3,1.3,1.1,1.3H59c0.8,0,1.5-0.7,1.7-1.4
		l2.8-12.5C63.4,23.8,63.7,23.1,63.1,23.1"/>
	<path class="st0" d="M42.8,41.9c-0.8,0-1.5,0.6-1.7,1.3L39,52.6l-4.8,21.8c0,0-2.5,11.6-2.8,12.3c0,0-2.1,8.4-7.2,8
		c-2.4-0.2-5.1-0.7-5.1-0.7l0,0c-1.4-0.4-1.5,1.1-1.7,1.8l-3.2,13.6c-0.2,0.7,0.3,1.4,1.1,1.4c0,0,6.8,1,11.7,1h0.8
		c11.9,0,18.2-7,22.2-26l4.7-22l4.4-20.5c0.2-0.7-0.3-1.4-1-1.4"/>
	<path class="st0" d="M255,49.2c0,0.8-2.6,0.7-2.6,0.7l-20.8-0.2c-0.7,0-0.9-1-1-1.7c0,0,0.1-0.9,0.1-1.1c1.6-5.6,6.4-8.8,14-8.8
		c8.6,0,10.4,4.2,10.4,9 M248,23c-26.7,0-33.1,16.5-36.6,32.9c-3.5,16.7-3.2,29.9,24.4,29.9h1c11,0,24.3,0,24.3,0
		c0.7,0,1.5-0.7,1.6-1.4l2.7-10.6c0.2-0.8-0.3-1-1.1-1h-24.8c-9,0-12.2-2.8-11.9-9c0-0.7,0.8-2.5,1.6-2.5h38.3c1.7,0,1.7-1,1.7-1
		C273,42.7,273.3,23,248,23"/>
	<path class="st0" d="M118.5,57.4l-3.1,10.5c-0.2,0.7-1.1,1.2-1.8,1.2H97.7c-12,0-15-9.3-12-23.2c2.9-14.2,8.8-23,20.6-23.9
		c16.2-1.2,19.5,10.2,15.6,23.4L118.5,57.4 M132.6,68.5c0,0,7.5-18.2,9.2-28.7c2.3-14-4.7-34.4-31.9-34.4c-27,0-38.7,19.4-43.2,40.6
		c-4.5,21.3,1.4,39.8,28.2,39.7h41c0.8,0,1.5-0.6,1.7-1.3l3.5-13.2c0.2-0.7-0.3-1.3-1-1.3h-3.3h-3.3c-0.6,0-1-0.4-0.9-1
		C132.6,68.7,132.6,68.6,132.6,68.5"/>
</g>
</svg>
