<?xml version="1.0" ?><!DOCTYPE svg  PUBLIC '-//W3C//DTD SVG 1.1//EN'  'http://www.w3.org/Graphics/SVG/1.1/DTD/svg11.dtd'><svg height="176.389mm" style="shape-rendering:geometricPrecision; text-rendering:geometricPrecision; image-rendering:optimizeQuality; fill-rule:evenodd; clip-rule:evenodd" version="1.1" viewBox="0 0 17639 17639" width="176.389mm" xml:space="preserve" xmlns="http://www.w3.org/2000/svg" xmlns:xlink="http://www.w3.org/1999/xlink"><defs><style type="text/css">
   <![CDATA[
    .fil1 {fill:none}
    .fil0 {fill:#087366}
   ]]>
  </style></defs><g id="Layer_x0020_1"><path class="fil0" d="M3502 4851c60,-91 -40,-88 353,-148l5784 -964 0 10160 -6137 -1111 0 -7937zm6389 6095l2262 -10 0 -529 -2262 -13 0 -559 2262 -10 0 -476 -2262 -14 0 -611 2262 -10 0 -1641 -2262 -13 0 -674 2937 13 0 4960c0,970 139,1336 -304,1336l-2633 -16 0 -621 2262 -11 0 -529 -2262 -13 0 -559zm3014 -4889c-182,-128 -397,-234 -567,-333 -592,-343 -993,-459 -943,-798 628,-50 1772,-22 2452,-22 286,0 290,25 290,317l0 4868c0,339 -83,312 -392,309 -212,-3 -423,-4 -636,-4l-16 -3639c2,-362 76,-513 -188,-698zm-10824 9536l13494 0 2 -13494 -13493 0 -3 13494z"/><path class="fil0" d="M6303 7731c492,-54 723,39 703,555 -18,441 -268,525 -710,500l7 -1055zm-599 -598l-7 3446 579 27 18 -1191c711,-66 1388,-78 1388,-1283 0,-1303 -1085,-1041 -1978,-999z"/><path class="fil1" d="M6296 8786c442,25 692,-59 710,-500 20,-516 -211,-609 -703,-555l-7 1055z"/></g></svg>