<?xml version="1.0" encoding="utf-8"?>
<!-- Generator: Adobe Illustrator 23.0.3, SVG Export Plug-In . SVG Version: 6.00 Build 0)  -->
<svg version="1.1" id="Layer_1" xmlns="http://www.w3.org/2000/svg" xmlns:xlink="http://www.w3.org/1999/xlink" x="0px" y="0px"
	 viewBox="0 0 512 308" style="enable-background:new 0 0 512 308;" xml:space="preserve">
<style type="text/css">
	.st0{enable-background:new    ;}
	.st1{fill-rule:evenodd;clip-rule:evenodd;fill:#1D82AA;}
	.st2{fill-rule:evenodd;clip-rule:evenodd;fill:#494442;}
</style>
<g id="形状_1_5_" class="st0">
	<g id="形状_1">
		<g>
			<path class="st1" d="M233.1,249.9h-23.7v2.5c7.4,0,8.6,1.6,8.6,11v17c0,9.4-1.2,11.1-8.6,11.1c-5.7-0.8-9.5-3.8-14.8-9.7
				l-6.1-6.6c8.2-1.5,12.6-6.6,12.6-12.5c0-7.3-6.2-12.8-17.9-12.8h-23.3v2.5c7.4,0,8.6,1.6,8.6,11v17c0,9.4-1.2,11.1-8.6,11.1v2.5
				h26.4v-2.5c-7.4,0-8.6-1.7-8.6-11.1v-4.8h2.3l14.7,18.4h38.5c18.9,0,27.1-10.1,27.1-22.1C260.2,259.8,252,249.9,233.1,249.9z
				 M177.6,271.5v-17.6h5.4c6,0,8.6,4.1,8.6,8.9c0,4.6-2.6,8.7-8.6,8.7H177.6z M233.5,289.9h-0.9c-4.8,0-5.4-1.2-5.4-7.3v-28.7
				c0,0,5.8,0,6.4,0c13.8,0,16.3,10.1,16.3,17.9C249.8,279.8,247.3,289.9,233.5,289.9z M113.1,236.7H88.2v2.6c8.5,0,9.7,2.3,7,10.1
				l-9.1,27L73,236.7h-2.5l-13.4,39.7l-8.9-27c-2.8-8.2-0.7-10.1,7.2-10.1v-2.6H26v2.6c7.7,0,9.8,2,13,11.7l14.7,45.3h1.7l13.8-41.5
				l13.5,41.5h1.7L99.5,251c3.3-9.7,5.3-11.7,13.6-11.7L113.1,236.7L113.1,236.7z M131.1,248.2c-14.6,0-26.5,10.7-26.5,23.7
				c0,13.1,11.9,23.8,26.5,23.8c14.6,0,26.5-10.7,26.5-23.8C157.6,258.9,145.7,248.2,131.1,248.2z M131.1,291.5
				c-12.2,0-16.4-10.9-16.4-19.6c0-8.6,4.2-19.6,16.4-19.6c12.3,0,16.6,11,16.6,19.6C147.7,280.6,143.4,291.5,131.1,291.5z"/>
		</g>
	</g>
</g>
<g id="形状_1_4_" class="st0">
	<g id="形状_1_1_">
		<g>
			<path class="st2" d="M290,236.7h-27.4v2.6c8.9,0,10.5,2.1,10.5,15.4v21.2c0,13.2-1.6,15.5-10.5,15.5v2.6h30.3v-2.6
				c-8.9,0-10.5-2.3-10.5-15.5v-6.5h7.5c13.6,0,21.2-7.2,21.2-16.3C311.2,243.7,303.7,236.7,290,236.7z M290,264.5h-7.5v-23h7.5
				c7.4,0,10.9,5.3,10.9,11.7C300.9,259.3,297.5,264.5,290,264.5z M401.5,284c-1.2,4.4-2.6,6-12.1,6h-1.9c-6.9,0-8.1-1.6-8.1-11
				v-6.1c10.3,0,11.1,0.9,11.1,7.8h2.5v-19.7h-2.5c0,6.9-0.8,7.8-11.1,7.8v-14.8h7.3c9.4,0,10.9,1.6,12.1,6l0.7,2.5h2.1l-0.9-12.4
				h-38.9v2.5c7.4,0,8.6,1.6,8.6,11v17c0,8.6-1,10.8-6.9,11.1c-5.6-0.9-9.4-3.9-14.6-9.6l-6.1-6.6c8.2-1.5,12.6-6.6,12.6-12.5
				c0-7.3-6.2-12.8-17.9-12.8h-23.3v2.5c7.4,0,8.6,1.6,8.6,11v17c0,9.4-1.2,11.1-8.6,11.1v2.5h26.4v-2.5c-7.4,0-8.6-1.7-8.6-11.1
				v-4.8h2.3L349,294h54.4l0.8-12.4h-2L401.5,284z M332,271.5v-17.6h5.4c6,0,8.6,4.1,8.6,8.9c0,4.6-2.6,8.7-8.6,8.7H332z
				 M436.4,269.6l-7.3-3.6c-6.4-2.9-9.1-4.8-9.1-8.2c0-3.3,3.4-5.4,7.2-5.4c7,0,10.5,5.2,11.4,11.4h2.8v-15.6h-2.5
				c-0.4,1.6-1.1,3-1.7,3.6c-2.3-1.9-6-3.4-10.3-3.4c-8.2,0-14.2,5.4-14.2,11.8c0,5.8,4,10.2,9.3,12.7l7.5,3.6
				c5.4,2.5,8.5,5.2,8.5,8.6c0,4-3.4,6.4-7.7,6.4c-7.8,0-13.9-5.2-15-13.9h-2.6v18.3h2.5c0.3-1.9,1.5-3.8,2.1-4.5
				c2,1.7,6.6,4.5,11.9,4.5c8.9,0,16.2-5.8,16.2-14.2C445.2,277.6,442.7,272.7,436.4,269.6z M477.2,269.6l-7.3-3.6
				c-6.4-2.9-9.1-4.8-9.1-8.2c0-3.3,3.4-5.4,7.2-5.4c7,0,10.5,5.2,11.4,11.4h2.8v-15.6h-2.5c-0.4,1.6-1.1,3-1.7,3.6
				c-2.3-1.9-6-3.4-10.3-3.4c-8.2,0-14.2,5.4-14.2,11.8c0,5.8,4,10.2,9.3,12.7l7.5,3.6c5.4,2.5,8.5,5.2,8.5,8.6c0,4-3.4,6.4-7.7,6.4
				c-7.8,0-13.9-5.2-15-13.9h-2.6v18.3h2.5c0.3-1.9,1.5-3.8,2.1-4.5c2,1.7,6.6,4.5,11.9,4.5c8.9,0,16.2-5.8,16.2-14.2
				C486,277.6,483.5,272.7,477.2,269.6z"/>
		</g>
	</g>
</g>
<g id="形状_1_3_" class="st0">
	<g id="形状_1_2_">
		<g>
			<path class="st2" d="M170,110.5c0,33.9,19.7,63.1,48.2,77L177.4,75.6C172.6,86.3,170,98.1,170,110.5z M313.3,106.2
				c0-10.6-3.8-17.9-7.1-23.6c-4.3-7-8.4-13-8.4-20.1c0-7.9,6-15.2,14.4-15.2c0.4,0,0.7,0,1.1,0.1c-15.2-13.9-35.5-22.5-57.8-22.5
				c-29.9,0-56.2,15.3-71.5,38.6c2,0.1,3.9,0.1,5.5,0.1c8.9,0,22.8-1.1,22.8-1.1c4.6-0.3,5.2,6.5,0.5,7c0,0-4.6,0.5-9.8,0.8
				l31.2,92.7l18.7-56.2l-13.3-36.5c-4.6-0.3-9-0.8-9-0.8c-4.6-0.3-4.1-7.3,0.5-7c0,0,14.1,1.1,22.5,1.1c8.9,0,22.8-1.1,22.8-1.1
				c4.6-0.3,5.2,6.5,0.5,7c0,0-4.6,0.5-9.8,0.8l30.9,92l8.5-28.5C310.5,122,313.3,113.5,313.3,106.2z M257,118l-25.7,74.6
				c7.7,2.3,15.8,3.5,24.2,3.5c10,0,19.5-1.7,28.4-4.9c-0.2-0.4-0.4-0.8-0.6-1.2L257,118z M330.6,69.4c0.4,2.7,0.6,5.6,0.6,8.8
				c0,8.7-1.6,18.4-6.5,30.6l-26.1,75.6c25.4-14.8,42.5-42.4,42.5-74C341.1,95.6,337.3,81.6,330.6,69.4z M255.5,10.7
				c-55,0-99.7,44.7-99.7,99.7c0,55,44.7,99.7,99.7,99.7c55,0,99.7-44.7,99.7-99.7C355.3,55.5,310.5,10.7,255.5,10.7z M255.5,205.6
				c-52.5,0-95.2-42.7-95.2-95.2c0-52.5,42.7-95.2,95.2-95.2c52.5,0,95.2,42.7,95.2,95.2C350.7,162.9,308,205.6,255.5,205.6z"/>
		</g>
	</g>
</g>
</svg>
